<svg xmlns="http://www.w3.org/2000/svg" version="1.1" xmlns:xlink="http://www.w3.org/1999/xlink" width="512" height="512" x="0" y="0" viewBox="0 0 64 64" style="enable-background:new 0 0 512 512" xml:space="preserve" class="">
    <g>
        <path d="m61.5 44.1-4 7c-.6 1-1.6 1.6-2.8 1.6-.6 0-1.1-.1-1.6-.4l-12.2-7c-.3-.2-.7-.2-1.1 0-.3.2-.5.5-.5.9v14.7c0 1.8-1.4 3.2-3.2 3.2h-8c-1.8 0-3.2-1.4-3.2-3.2v-15c0-.4-.2-.7-.5-.9-.2-.1-.3-.1-.5-.1s-.4 0-.5.1L11 52.2c-.5.3-1 .4-1.6.4-1.1 0-2.2-.6-2.8-1.6l-4-7c-.4-.7-.5-1.6-.3-2.4s.7-1.5 1.5-1.9l12.2-7c.3-.2.5-.5.5-.9s-.2-.7-.5-.9L3.2 23.4c-.7-.4-1.3-1.1-1.5-1.9s-.1-1.7.3-2.4l4-7c.6-1 1.6-1.6 2.8-1.6.6 0 1.1.1 1.6.4l12.9 7.5c.3.2.7.2 1.1 0 .3-.2.5-.5.5-.9V3.2c0-1.8 1.4-3.2 3.2-3.2h8c1.8 0 3.2 1.4 3.2 3.2v14.1c0 .4.2.7.5.9s.7.2 1.1 0l12.7-7.3c.5-.3 1-.4 1.6-.4 1.1 0 2.2.6 2.8 1.6l4 7c.9 1.5.4 3.5-1.2 4.3l-12.9 7.5c-.3.2-.5.5-.5.9s.2.7.5.9l12.4 7.2c1.5.8 2 2.7 1.2 4.2z" fill="var(--cross-color)" opacity="1" data-original="#000000" class=""></path>
    </g>
</svg>