<svg xmlns="http://www.w3.org/2000/svg" version="1.1" xmlns:xlink="http://www.w3.org/1999/xlink" width="512" height="512" x="0" y="0" viewBox="0 0 24 24" style="enable-background:new 0 0 512 512" xml:space="preserve" class="">
    <g>
        <path d="M11.16 11.693 9.4 9.866l-2.16 2.079 2.2 2.287a2.363 2.363 0 0 0 1.674.74h.037a2.368 2.368 0 0 0 1.662-.688l5.021-5.023-2.122-2.12Z" fill="var(--icon-color)" opacity="1" data-original="#000000" class=""></path>
        <path d="m11.922 24-.531-.237C11.007 23.589 2 19.5 2 12V5.525a3 3 0 0 1 2.052-2.846L12 .03l7.949 2.65A2.994 2.994 0 0 1 22 5.525V12c0 8.539-9.137 11.682-9.526 11.812ZM12 3.192 5 5.525V12c0 4.67 5.344 7.847 7.077 8.753C13.819 20.026 19 17.408 19 12V5.525Z" fill="var(--icon-color)" opacity="1" data-original="#000000" class=""></path>
    </g>
</svg>