<?xml version="1.0" encoding="UTF-8" standalone="no"?>
<!DOCTYPE svg PUBLIC "-//W3C//DTD SVG 1.1//EN" "http://www.w3.org/Graphics/SVG/1.1/DTD/svg11.dtd">
<!-- Created with Vectornator (http://vectornator.io/) -->
<svg height="100%" stroke-miterlimit="10" style="fill-rule:nonzero;clip-rule:evenodd;stroke-linecap:round;stroke-linejoin:round;" version="1.1" viewBox="8.66009e-20 0 0.949211 1" width="100%" xml:space="preserve" xmlns="http://www.w3.org/2000/svg" xmlns:vectornator="http://vectornator.io" xmlns:xlink="http://www.w3.org/1999/xlink">
<defs/>
<clipPath id="ArtboardFrame">
<rect height="1" width="0.949211" x="8.66009e-20" y="0"/>
</clipPath>
<g clip-path="url(#ArtboardFrame)" id="Layer" vectornator:layerName="Layer">
<path d="M0.934477 0.687988L0.872075 0.797192C0.862715 0.812793 0.847114 0.822153 0.828393 0.822153C0.819033 0.822153 0.811232 0.820593 0.803432 0.815913L0.613105 0.706708C0.608424 0.703588 0.602184 0.703588 0.595944 0.706708C0.591264 0.709828 0.588144 0.714509 0.588144 0.720749L0.588144 0.950078C0.588144 0.978159 0.566303 1 0.538222 1L0.413417 1C0.385335 1 0.363495 0.978159 0.363495 0.950078L0.363495 0.716069C0.363495 0.709828 0.360374 0.705148 0.355694 0.702028C0.352574 0.700468 0.351014 0.700468 0.347894 0.700468C0.344774 0.700468 0.341654 0.700468 0.340094 0.702028L0.146646 0.814353C0.138846 0.819033 0.131045 0.820593 0.121685 0.820593C0.104524 0.820593 0.0873635 0.811232 0.0780031 0.795632L0.0156006 0.686427C0.00936037 0.675507 0.00780031 0.661466 0.0109204 0.648986C0.0140406 0.636505 0.0218409 0.625585 0.0343214 0.619345L0.224649 0.51014C0.229329 0.50702 0.232449 0.50234 0.232449 0.4961C0.232449 0.48986 0.229329 0.485179 0.224649 0.482059L0.024961 0.365055C0.0140406 0.358814 0.00468019 0.347894 0.00156006 0.335413C-0.00156006 0.322933 0 0.308892 0.00624025 0.297972L0.0686427 0.188768C0.0780031 0.173167 0.0936037 0.163807 0.112324 0.163807C0.121685 0.163807 0.129485 0.165367 0.137285 0.170047L0.338534 0.287051C0.343214 0.290172 0.349454 0.290172 0.355694 0.287051C0.360374 0.283931 0.363495 0.279251 0.363495 0.273011L0.363495 0.049922C0.363495 0.0218409 0.385335 0 0.413417 0L0.538222 0C0.566303 0 0.588144 0.0218409 0.588144 0.049922L0.588144 0.269891C0.588144 0.276131 0.591264 0.280811 0.595944 0.283931C0.600624 0.287051 0.606864 0.287051 0.613105 0.283931L0.811232 0.170047C0.819033 0.165367 0.826833 0.163807 0.836193 0.163807C0.853354 0.163807 0.870515 0.173167 0.879875 0.188768L0.942278 0.297972C0.956318 0.321373 0.948518 0.352574 0.923557 0.365055L0.722309 0.482059C0.717629 0.485179 0.714509 0.48986 0.714509 0.4961C0.714509 0.50234 0.717629 0.50702 0.722309 0.51014L0.915757 0.622465C0.939158 0.634945 0.946958 0.664587 0.934477 0.687988Z" fill="#000000" fill-rule="nonzero" opacity="1" stroke="none" vectornator:layerName="path"/>
</g>
</svg>
